<svg xmlns="http://www.w3.org/2000/svg" viewBox="0 0 64 64" width="64" height="64">
  <defs>
    <linearGradient id="bc-gold" x1="0%" y1="0%" x2="100%" y2="100%">
      <stop offset="0%" stop-color="#fcd34d" />
      <stop offset="100%" stop-color="#f59e0b" />
    </linearGradient>
    <linearGradient id="bc-bg" x1="0%" y1="0%" x2="100%" y2="100%">
      <stop offset="0%" stop-color="#1e293b" />
      <stop offset="100%" stop-color="#0f172a" />
    </linearGradient>
  </defs>
  <rect width="64" height="64" rx="16" fill="url(#bc-bg)" />
  <g transform="translate(8, 8)">
    <path fill="url(#bc-gold)" d="M8 12.5 18 7v27L8 40.5zM19.5 8.2 25 5v27l-5.5 3.2zM27 6.4 31 4v27l-4 2.3z" />
    <path fill="#ffffff" d="M32 8h5.2C42.1 8 45 10.2 45 14c0 2.4-1.1 4-3.2 5.2 2.7.9 4.2 2.8 4.2 5.8 0 4.5-3.4 7-8.6 7H32v-5h4.7c2.4 0 3.7-.8 3.7-2.5 0-1.8-1.3-2.5-3.7-2.5H32v-4.7h4.1c2.1 0 3.2-.8 3.2-2.3 0-1.4-1.1-2.2-3.2-2.2H32z" />
  </g>
</svg>
